SplineFontDB: 3.0
FontName: Techna-Regular
FullName: Techna Regular
FamilyName: Techna
Weight: Regular
Copyright: Copyright (c) 2019, Carl Enlund
UComments: "2019-5-11: Created with FontForge (http://fontforge.org)"
Version: 001.000
ItalicAngle: 0
UnderlinePosition: -100
UnderlineWidth: 50
Ascent: 800
Descent: 200
InvalidEm: 0
LayerCount: 2
Layer: 0 0 "Back" 1
Layer: 1 0 "Fore" 0
XUID: [1021 637 837473831 1446149]
FSType: 0
OS2Version: 0
OS2_WeightWidthSlopeOnly: 0
OS2_UseTypoMetrics: 1
CreationTime: 1557605594
ModificationTime: 1558538285
PfmFamily: 17
TTFWeight: 400
TTFWidth: 5
LineGap: 90
VLineGap: 0
OS2TypoAscent: 0
OS2TypoAOffset: 1
OS2TypoDescent: 0
OS2TypoDOffset: 1
OS2TypoLinegap: 0
OS2WinAscent: 0
OS2WinAOffset: 1
OS2WinDescent: 0
OS2WinDOffset: 1
HheadAscent: 0
HheadAOffset: 1
HheadDescent: 0
HheadDOffset: 1
OS2Vendor: 'PfEd'
Lookup: 258 0 0 "'kern' Horizontal Kerning in Latin lookup 0" { "'kern' Horizontal Kerning in Latin lookup 0-1" [150,15,0] } ['kern' ('DFLT' <'dflt' > 'latn' <'dflt' > ) ]
MarkAttachClasses: 1
DEI: 91125
LangName: 1033
Encoding: ISO8859-1
Compacted: 1
UnicodeInterp: none
NameList: AGL For New Fonts
DisplaySize: -72
AntiAlias: 1
FitToEm: 0
WinInfo: 0 12 8
BeginPrivate: 0
EndPrivate
Grid
-976 -155 m 0
 2024 -155 l 1024
-1021.83337402 1300 m 0
 -1021.83337402 -700 l 1024
-1000 503 m 0
 2000 503 l 1024
-1000 413.916992188 m 0
 2000 413.916992188 l 1024
-1000 688 m 0
 2000 688 l 1024
EndSplineSet
BeginChars: 256 58

StartChar: D
Encoding: 68 68 0
Width: 695
VWidth: 0
Flags: HW
LayerCount: 2
Fore
SplineSet
322 121 m 5
 322 0 l 5
 142 0 l 1
 142 121 l 1
 322 121 l 5
332 688 m 5
 326 567 l 5
 142 567 l 1
 142 688 l 1
 332 688 l 5
60 0 m 1
 60 688 l 1
 194 688 l 1
 194 0 l 1
 60 0 l 1
332 688 m 5
 555.106733588 688 675 540.865234375 675 350 c 3
 675 152.017578125 551.669727554 0 322 0 c 5
 322 121 l 5
 469.964969758 121 542 221.337890625 542 346 c 3
 542 468.446289062 471.274537853 567 326 567 c 5
 332 688 l 5
EndSplineSet
EndChar

StartChar: E
Encoding: 69 69 1
Width: 553
VWidth: 0
Flags: HW
LayerCount: 2
Fore
SplineSet
125 412.916992188 m 1
 455 412.916992188 l 1
 423 293 l 1
 123 292.916992188 l 1
 125 412.916992188 l 1
125 123 m 1
 515 123 l 1
 548 0 l 1
 125 0 l 1
 125 123 l 1
125 688 m 1
 525 688 l 1
 493 565 l 1
 125 565 l 1
 125 688 l 1
60 0 m 1
 60 688 l 1
 194 688 l 1
 194 0 l 1
 60 0 l 1
EndSplineSet
EndChar

StartChar: C
Encoding: 67 67 2
Width: 614
VWidth: 0
Flags: HW
LayerCount: 2
Fore
SplineSet
561 546 m 5
 529 556.56 480 570 413 570 c 7
 301 570 154 519.6925825 154 347 c 7
 154 177.723848545 288 113 421 113 c 7
 485 113 547 126.575757576 589 145 c 5
 589 17 l 5
 556.762105083 3.51858836207 492.828382555 -11 413 -11 c 7
 237.42578125 -11 20 72.3076171875 20 343 c 7
 20 629.174804688 263.901367188 697 432 697 c 7
 507.048549107 697 567.306989397 682.473899148 594 674 c 5
 561 546 l 5
EndSplineSet
EndChar

StartChar: G
Encoding: 71 71 3
Width: 700
VWidth: 0
Flags: HW
LayerCount: 2
Fore
SplineSet
594 541 m 1
 568 550.310344828 497 571 420 571 c 3
 304.763006203 571 154 523.383840415 154 347 c 3
 154 177.000446188 285.142143004 112 431 112 c 3
 493 112 562.653846154 128.593406593 594 145 c 1
 642 16 l 5
 606.495412844 7.0989010989 502.940366972 -11 427 -11 c 3
 230.551980198 -11 20 72.7607421875 20 343 c 3
 20 630 266.224609375 697 431 697 c 3
 527.097421875 697 594.650429688 680 627 670 c 1
 594 541 l 1
513 16 m 5
 513 355 l 1
 642 355 l 1
 642 16 l 5
 513 16 l 5
368 405 m 1
 642 405 l 1
 642 286 l 1
 337 286 l 1
 368 405 l 1
EndSplineSet
EndChar

StartChar: T
Encoding: 84 84 4
Width: 563
VWidth: 0
Flags: HW
LayerCount: 2
Fore
SplineSet
559 688 m 1
 559 565 l 1
 -4 565 l 1
 28 688 l 1
 559 688 l 1
222 0 m 1
 222 639 l 1
 356 639 l 1
 356 0 l 1
 222 0 l 1
EndSplineSet
EndChar

StartChar: H
Encoding: 72 72 5
Width: 641
VWidth: 0
Flags: HW
LayerCount: 2
Fore
SplineSet
121 413.916992188 m 1
 520 413.916992188 l 5
 525 291 l 5
 121 290.916992188 l 1
 121 413.916992188 l 1
447 0 m 5
 447 688 l 5
 581 688 l 5
 581 0 l 5
 447 0 l 5
60 0 m 1
 60 688 l 1
 194 688 l 1
 194 0 l 1
 60 0 l 1
EndSplineSet
EndChar

StartChar: N
Encoding: 78 78 6
Width: 641
VWidth: 0
Flags: HW
LayerCount: 2
Fore
SplineSet
103 653 m 1
 189 688 l 1
 217 688 l 1
 551 35 l 5
 466 0 l 5
 438 0 l 5
 103 653 l 1
447 0 m 1
 447 688 l 1
 581 688 l 1
 581 0 l 1
 447 0 l 1
60 0 m 1
 60 688 l 1
 194 688 l 1
 194 0 l 1
 60 0 l 1
EndSplineSet
EndChar

StartChar: A
Encoding: 65 65 7
Width: 637
VWidth: 0
Flags: HW
LayerCount: 2
Fore
SplineSet
491 0 m 1
 286 688 l 1
 420 688 l 1
 629 0 l 1
 491 0 l 1
8 0 m 1
 217 688 l 5
 347 688 l 1
 142 0 l 1
 8 0 l 1
121 275 m 1
 517 275 l 1
 517 158 l 1
 121 158 l 1
 121 275 l 1
EndSplineSet
EndChar

StartChar: B
Encoding: 66 66 8
Width: 589
VWidth: 0
Flags: HW
LayerCount: 2
Fore
SplineSet
332 118 m 1
 338 0 l 1
 142 0 l 1
 142 118 l 1
 332 118 l 1
401 406 m 1
 401 291 l 1
 142 291 l 1
 142 406 l 1
 401 406 l 1
352 373 m 1
 480.846938776 373 559 294.446742869 559 196 c 7
 559 82.578680203 479.991500785 0 338 0 c 1
 332 118 l 1
 392.474624748 118 422 156.797219016 422 205 c 7
 422 252.6484375 392.474624748 291 332 291 c 1
 352 373 l 1
338 688 m 1
 326 568 l 1
 142 568 l 1
 142 688 l 1
 338 688 l 1
60 0 m 1
 60 688 l 1
 194 688 l 1
 194 0 l 1
 60 0 l 1
338 688 m 1
 471.01953125 688 541 606.537142857 541 512 c 7
 541 415.584072672 478.049180328 344 361 344 c 1
 326 406 l 1
 378.526296593 406 407 440.121439119 407 487 c 7
 407 533.903271484 378.526296593 568 326 568 c 1
 338 688 l 1
EndSplineSet
EndChar

StartChar: F
Encoding: 70 70 9
Width: 525
VWidth: 0
Flags: HW
LayerCount: 2
Fore
SplineSet
125 406.916992188 m 5
 451 406.916992188 l 5
 419 286 l 5
 125 286 l 5
 125 406.916992188 l 5
  Spiro
    125 406.917 v
    451 406.917 v
    419 286 v
    125 286 v
    0 0 z
  EndSpiro
125 688 m 1
 525 688 l 1
 492 565 l 1
 125 565 l 1
 125 688 l 1
60 0 m 1
 60 688 l 1
 194 688 l 1
 194 0 l 1
 60 0 l 1
  Spiro
    60 0 v
    60 688 v
    194 688 v
    194 0 v
    0 0 z
  EndSpiro
EndSplineSet
EndChar

StartChar: I
Encoding: 73 73 10
Width: 264
VWidth: 0
Flags: HW
LayerCount: 2
Fore
SplineSet
65 0 m 1
 65 688 l 1
 199 688 l 1
 199 0 l 1
 65 0 l 1
EndSplineSet
EndChar

StartChar: L
Encoding: 76 76 11
Width: 519
VWidth: 0
Flags: HW
LayerCount: 2
Fore
SplineSet
60 0 m 1
 60 688 l 1
 194 688 l 1
 194 0 l 1
 60 0 l 1
125 0 m 1
 125 123 l 5
 519 123 l 5
 488 0 l 1
 125 0 l 1
EndSplineSet
EndChar

StartChar: M
Encoding: 77 77 12
Width: 751
VWidth: 0
Flags: HW
LayerCount: 2
Fore
SplineSet
557 0 m 1
 557 688 l 1
 691 688 l 1
 691 0 l 1
 557 0 l 1
327 266 m 1
 327 323 l 1
 530 688 l 1
 647 688 l 1
 427 266 l 1
 327 266 l 1
325 266 m 1
 101 688 l 1
 223 688 l 1
 425 330 l 1
 425 266 l 1
 325 266 l 1
60 0 m 1
 60 688 l 1
 194 688 l 1
 194 0 l 1
 60 0 l 1
EndSplineSet
EndChar

StartChar: O
Encoding: 79 79 13
Width: 788
VWidth: 0
Flags: HW
LayerCount: 2
Fore
SplineSet
394 705 m 3
 638.69140625 705 768 538.087009006 768 346 c 3
 768 151.690561148 638.69140625 -17 394 -17 c 3
 149.30859375 -17 20 151.690561148 20 346 c 3
 20 538.087009006 149.30859375 705 394 705 c 3
394 584 m 3
 235.959480728 584 153 468.999593099 153 346 c 3
 153 220.933025422 235.959480728 104 394 104 c 7
 552.040519272 104 635 220.933025422 635 346 c 3
 635 468.999593099 552.040519272 584 394 584 c 3
EndSplineSet
EndChar

StartChar: P
Encoding: 80 80 14
Width: 566
VWidth: 0
Flags: HW
LayerCount: 2
Fore
SplineSet
324 381 m 5
 325 261 l 5
 142 261 l 1
 142 381 l 1
 324 381 l 5
331 688 m 5
 324 566 l 5
 142 566 l 1
 142 688 l 1
 331 688 l 5
60 0 m 1
 60 688 l 1
 194 688 l 1
 194 0 l 1
 60 0 l 1
331 688 m 5
 476.442223837 688 551 596.690501493 551 477 c 7
 551 354.114271831 474.379065328 261 325 261 c 5
 324 381 l 5
 388.069233905 381 416 421.958288434 416 475 c 7
 416 525.419433594 388.069233905 566 324 566 c 5
 331 688 l 5
EndSplineSet
EndChar

StartChar: Q
Encoding: 81 81 15
Width: 788
VWidth: 0
Flags: HW
LayerCount: 2
Fore
SplineSet
657 -61 m 5
 350 227 l 5
 433 313 l 1
 740 25 l 1
 657 -61 l 5
EndSplineSet
Refer: 13 79 N 1 0 0 1 0 0 2
EndChar

StartChar: R
Encoding: 82 82 16
Width: 581
VWidth: 0
Flags: HW
LayerCount: 2
Fore
SplineSet
367 383 m 1
 367 268 l 1
 142 268 l 1
 142 383 l 1
 367 383 l 1
332 688 m 1
 325 566 l 1
 142 566 l 1
 142 688 l 1
 332 688 l 1
60 0 m 1
 60 688 l 1
 194 688 l 1
 194 0 l 1
 60 0 l 1
332 688 m 1
 474.695601342 688 551 599.302439024 551 479 c 3
 551 360.708177649 477.909836066 268 310 268 c 1
 325 383 l 1
 388.372829189 383 416 423.522561961 416 476 c 3
 416 525.865373884 388.372829189 566 325 566 c 1
 332 688 l 1
402 0 m 1
 257 316 l 5
 404 316 l 1
 551 0 l 1
 402 0 l 1
EndSplineSet
EndChar

StartChar: U
Encoding: 85 85 17
Width: 624
VWidth: 0
Flags: HW
LayerCount: 2
Fore
SplineSet
192 240 m 2
 192 155.22176296 231.837791314 107 312 107 c 7
 392.162208686 107 432 155.22176296 432 240 c 2
 432 688 l 1
 566 688 l 1
 566 229 l 2
 566 75.9666992187 478.180578807 -17 312 -17 c 7
 145.819421193 -17 58 75.9666992188 58 229 c 2
 58 688 l 1
 192 688 l 1
 192 240 l 2
EndSplineSet
EndChar

StartChar: V
Encoding: 86 86 18
Width: 587
VWidth: 0
Flags: HW
LayerCount: 2
Fore
SplineSet
945 362 m 1049
257 0 m 1,0,-1
 436 688 l 1,1,-1
 577 688 l 1,2,-1
 386 0 l 1,3,-1
 257 0 l 1,0,-1
201 0 m 1,4,-1
 10 688 l 1,5,-1
 155 688 l 5,6,-1
 334 0 l 1,7,-1
 201 0 l 1,4,-1
EndSplineSet
EndChar

StartChar: Z
Encoding: 90 90 19
Width: 550
VWidth: 0
Flags: HW
LayerCount: 2
Fore
SplineSet
21 26 m 1
 103 121 l 1
 550 121 l 1
 517 0 l 1
 21 0 l 1
 21 26 l 1
527 662 m 1
 444 567 l 1
 20 567 l 1
 53 688 l 1
 527 688 l 1
 527 662 l 1
21 26 m 1
 371 651 l 5
 527 662 l 1
 177 39 l 1
 21 26 l 1
EndSplineSet
EndChar

StartChar: W
Encoding: 87 87 21
Width: 863
VWidth: 0
Flags: HW
LayerCount: 2
Fore
SplineSet
594 0 m 1
 702 688 l 1
 838 688 l 1
 721 0 l 1
 594 0 l 1
554 0 m 1
 385 688 l 5
 505 688 l 1
 676 0 l 1
 554 0 l 1
187 0 m 1
 362 688 l 1
 476 688 l 1
 302 0 l 1
 187 0 l 1
138 0 m 1
 25 688 l 1
 165 688 l 1
 269 0 l 1
 138 0 l 1
EndSplineSet
EndChar

StartChar: Y
Encoding: 89 89 22
Width: 557
VWidth: 0
Flags: HW
LayerCount: 2
Fore
SplineSet
212 0 m 1
 212 328 l 1
 346 328 l 1
 346 0 l 1
 212 0 l 1
215 251 m 1
 416 688 l 1
 562 688 l 1
 342 243 l 5
 215 251 l 1
214 241 m 5
 -5 688 l 1
 145 688 l 1
 346 254 l 1
 214 241 l 5
EndSplineSet
EndChar

StartChar: X
Encoding: 88 88 23
Width: 588
VWidth: 0
Flags: HW
LayerCount: 2
Back
SplineSet
151 0 m 1
 0 0 l 1
 431 688 l 1
 581 688 l 1
 151 0 l 1
439 0 m 1
 17 688 l 1
 173 688 l 1
 594 0 l 1
 439 0 l 1
EndSplineSet
Fore
SplineSet
151 0 m 1
 0 0 l 1
 204.015625 355.854492188 l 1
 17 688 l 1
 173 688 l 1
 301.1953125 448.426757812 l 1
 431 688 l 5
 581 688 l 1
 390.020507812 357.194335938 l 1
 594 0 l 1
 439 0 l 1
 292.840820312 264.62109375 l 1
 151 0 l 1
EndSplineSet
EndChar

StartChar: S
Encoding: 83 83 24
Width: 505
VWidth: 0
Flags: HW
LayerCount: 2
Fore
SplineSet
462 667 m 5
 431 542 l 5
 372.388157895 570.194444444 325.197747481 577 280 577 c 3
 211.616071429 577 169 554.302631579 169 502 c 3
 169 461.482421875 193 444.896551724 258 418 c 2
 316 394 l 2
 422 350.137931034 485 304 485 198 c 3
 485 60.6602870813 392 -10 241 -10 c 3
 162.838867188 -10 91.0146484375 9.10904296875 42 39 c 1
 42 174 l 1
 102 132.636363636 177 109 250 109 c 3
 314.362745098 109 351 132.707596009 351 190 c 3
 351 228 321.184041451 246.547357513 249 277 c 2
 185 304 l 2
 103.627836788 338.328881355 35 375.6328125 35 499 c 3
 35 621.388886719 133 698 289 698 c 3
 356.562589799 698 424.124208648 684.848083496 462 667 c 5
EndSplineSet
EndChar

StartChar: K
Encoding: 75 75 25
Width: 595
VWidth: 0
Flags: HW
LayerCount: 2
Back
SplineSet
182 413.916992188 m 5
 338 413.916992188 l 5
 601 0 l 5
 444 0 l 5
 182 413.916992188 l 5
121 413.916992188 m 5
 272 413.916992188 l 5
 272 291 l 5
 121 290.916992188 l 5
 121 413.916992188 l 5
187 291 m 5
 434 688 l 5
 585 688 l 5
 336 291 l 5
 187 291 l 5
60 0 m 5
 60 688 l 5
 194 688 l 5
 194 0 l 5
 60 0 l 5
EndSplineSet
Fore
SplineSet
159 360 m 1
 322 360 l 1
 608 0 l 1
 442 0 l 1
 159 360 l 1
163 352 m 1
 434 688 l 1
 592 688 l 1
 319 352 l 1
 163 352 l 1
60 0 m 1
 60 688 l 1
 194 688 l 1
 194 0 l 1
 60 0 l 1
EndSplineSet
EndChar

StartChar: J
Encoding: 74 74 26
Width: 476
VWidth: 0
Flags: HW
LayerCount: 2
Fore
SplineSet
354 688 m 1
 354 565 l 1
 46 565 l 1
 78 688 l 1
 169.999682531 688 262.000317469 688 354 688 c 1
35 147 m 1
 76.4951171875 126.076171875 113.338867188 115 162 115 c 3
 240.080078125 115 284 149 284 228 c 2
 284 688 l 1
 418 688 l 1
 418 217 l 2
 418 65 334.424804688 -9 176 -9 c 3
 125.143554688 -9 64.1728515625 1.73046875 35 22 c 5
 35 147 l 1
EndSplineSet
EndChar

StartChar: Odieresis
Encoding: 214 214 27
Width: 788
VWidth: 0
Flags: HW
LayerCount: 2
Fore
SplineSet
429 750 m 1
 429 883 l 1
 563 883 l 1
 563 750 l 1
 429 750 l 1
225 750 m 5
 225 883 l 5
 359 883 l 5
 359 750 l 5
 225 750 l 5
EndSplineSet
Refer: 13 79 N 1 0 0 1 0 0 2
EndChar

StartChar: o
Encoding: 111 111 28
Width: 574
VWidth: 0
Flags: HW
LayerCount: 2
Fore
SplineSet
287 518 m 7
 457.931640625 518 556 402 556 252 c 7
 556 101 457.931640625 -15 287 -15 c 7
 116.068359375 -15 18 101 18 252 c 7
 18 402 116.068359375 518 287 518 c 7
287 404 m 7
 195.461914062 404 147 336.106445312 147 252 c 7
 147 167.900390625 195.461914062 99 287 99 c 7
 378.538085938 99 427 167.900390625 427 252 c 7
 427 336.106445312 378.538085938 404 287 404 c 7
EndSplineSet
EndChar

StartChar: i
Encoding: 105 105 29
Width: 229
VWidth: 0
Flags: HW
LayerCount: 2
Fore
SplineSet
50 566 m 5
 50 688 l 5
 179 688 l 5
 179 566 l 5
 50 566 l 5
50 0 m 1
 50 503 l 1
 179 503 l 1
 179 0 l 1
 50 0 l 1
EndSplineSet
EndChar

StartChar: hyphen
Encoding: 45 45 30
Width: 384
VWidth: 0
Flags: HW
LayerCount: 2
Fore
SplineSet
354 363 m 5
 354 239 l 5
 18 239 l 1
 50 363 l 1
 354 363 l 5
EndSplineSet
EndChar

StartChar: l
Encoding: 108 108 31
Width: 229
VWidth: 0
Flags: HW
LayerCount: 2
Fore
SplineSet
50 0 m 1
 50 688 l 5
 179 688 l 5
 179 0 l 1
 50 0 l 1
EndSplineSet
EndChar

StartChar: n
Encoding: 110 110 32
Width: 536
VWidth: 0
Flags: HW
LayerCount: 2
Fore
SplineSet
50 0 m 1
 50 503 l 1
 175 503 l 5
 176 360 l 1
 179 360 l 1
 179 0 l 1
 50 0 l 1
162 358 m 1
 162 450.981445312 219.5859375 512 325 512 c 3
 430.52734375 512 492 442.806640625 492 338 c 2
 492 0 l 1
 363 0 l 1
 363 298 l 2
 363 355.795898438 334.674804688 394 276 394 c 3
 214.6328125 394 179 356.756835938 179 288 c 1
 162 358 l 1
EndSplineSet
EndChar

StartChar: h
Encoding: 104 104 33
Width: 536
VWidth: 0
Flags: HW
LayerCount: 2
Fore
SplineSet
50 0 m 1
 50 688 l 1
 179 688 l 1
 179 0 l 1
 50 0 l 1
162 358 m 1
 162 450.981445312 219.5859375 512 325 512 c 3
 430.52734375 512 492 442.806640625 492 338 c 2
 492 0 l 1
 363 0 l 1
 363 298 l 6
 363 355.795898438 334.674804688 394 276 394 c 3
 214.6328125 394 179 356.756835938 179 288 c 1
 162 358 l 1
EndSplineSet
EndChar

StartChar: a
Encoding: 97 97 34
Width: 486
VWidth: 0
Flags: HW
LayerCount: 2
Fore
SplineSet
315 315 m 1
 315 365.165222886 282.022443182 398 203 398 c 3
 140.818181818 398 86.7647625812 379.578947368 51 363 c 1
 82 483 l 1
 120.5 501.70967742 168.416666667 512 236 512 c 3
 371.766419654 512 442 442.4 442 338 c 1
 315 315 l 1
442 338 m 1
 442 0 l 1
 319 0 l 1
 318 143 l 1
 315 143 l 1
 315 315 l 1
 442 338 l 1
149 159 m 3
 149 122 176.713867188 100 221 100 c 3
 281.9296875 100 315 133.859375 315 197 c 1
 332 145 l 1
 332 52.3671875 273.215820312 -8 182 -8 c 3
 77.0458984375 -8 20 57 20 144 c 3
 20 279.619017687 145.295524697 297.181003517 247.7890625 306.006835938 c 2
 329 313 l 1
 329 223 l 1
 233.8515625 215.999023438 l 2
 183.975778571 212.329187091 149 194.909301622 149 159 c 3
EndSplineSet
EndChar

StartChar: u
Encoding: 117 117 35
Width: 532
VWidth: 0
Flags: HW
LayerCount: 2
Fore
SplineSet
482 503 m 1
 482 0 l 1
 357 0 l 5
 356 143 l 1
 353 143 l 1
 353 503 l 1
 482 503 l 1
370 145 m 1
 370 52.0185546875 313.12109375 -9 209 -9 c 3
 104.736328125 -9 44 60.5908203125 44 166 c 2
 44 503 l 1
 173 503 l 1
 173 205 l 2
 173 147.204101562 200.674804688 109 258 109 c 3
 318.1015625 109 353 146.243164062 353 215 c 1
 370 145 l 1
EndSplineSet
EndChar

StartChar: b
Encoding: 98 98 36
Width: 595
VWidth: 0
Flags: HW
LayerCount: 2
Fore
SplineSet
179 143 m 1
 179 202 l 1
 178 202 l 1
 178 302 l 1
 179 302 l 1
 179 688 l 1
 50 688 l 1
 50 0 l 1
 175 0 l 5
 176 143 l 1
 179 143 l 1
338 515 m 3
 220.592773438 515 147 429.221679688 147 322 c 1
 147 182 l 1
 147 74.71875 219.80859375 -12 338 -12 c 3
 488.045898438 -12 577 102.696289062 577 252 c 3
 577 400.30859375 488.045898438 515 338 515 c 3
313 401 m 3
 401.26953125 401 448 334.446289062 448 252 c 3
 448 169.549804688 401.26953125 102 313 102 c 3
 224.73046875 102 178 169.549804688 178 252 c 3
 178 334.446289062 224.73046875 401 313 401 c 3
EndSplineSet
EndChar

StartChar: d
Encoding: 100 100 37
Width: 595
VWidth: 0
Flags: HW
LayerCount: 2
Fore
SplineSet
416 143 m 1
 416 202 l 1
 417 202 l 1
 417 302 l 1
 416 302 l 1
 416 688 l 1
 545 688 l 1
 545 0 l 1
 420 0 l 5
 419 143 l 1
 416 143 l 1
262 515 m 3
 374.352539062 515 448 429.221679688 448 322 c 1
 448 182 l 17
 448 74.71875 375.13671875 -12 262 -12 c 3
 106.954101562 -12 18 102.696289062 18 252 c 3
 18 400.30859375 106.954101562 515 262 515 c 3
282 401 m 3
 193.73046875 401 147 334.446289062 147 252 c 3
 147 169.549804688 193.73046875 102 282 102 c 3
 370.26953125 102 417 169.549804688 417 252 c 3
 417 334.446289062 370.26953125 401 282 401 c 3
EndSplineSet
EndChar

StartChar: p
Encoding: 112 112 38
Width: 595
VWidth: 0
Flags: HW
LayerCount: 2
Fore
SplineSet
179 360 m 1
 179 301 l 1
 178 301 l 1
 178 201 l 1
 179 201 l 1
 179 -155 l 1
 50 -155 l 1
 50 503 l 1
 175 503 l 1
 176 360 l 1
 179 360 l 1
338 -12 m 3
 220.647460938 -12 147 73.7783203125 147 181 c 1
 147 321 l 1
 147 428.28125 219.86328125 515 339 515 c 3
 488.045898438 515 577 400.303710938 577 251 c 3
 577 102.69140625 488.045898438 -12 338 -12 c 3
313 102 m 3
 401.26953125 102 448 168.553710938 448 251 c 3
 448 333.450195312 401.26953125 401 313 401 c 3
 224.73046875 401 178 333.450195312 178 251 c 3
 178 168.553710938 224.73046875 102 313 102 c 3
EndSplineSet
EndChar

StartChar: q
Encoding: 113 113 39
Width: 595
VWidth: 0
Flags: HW
LayerCount: 2
Fore
SplineSet
416 360 m 1
 416 301 l 1
 417 301 l 1
 417 201 l 1
 416 201 l 1
 416 -155 l 1
 545 -155 l 1
 545 503 l 1
 420 503 l 5
 419 360 l 1
 416 360 l 1
257 -12 m 3
 374.352539062 -12 448 73.7783203125 448 181 c 1
 448 322 l 1
 448 428.727539062 375.13671875 515 257 515 c 3
 106.954101562 515 18 400.303710938 18 251 c 3
 18 102.69140625 106.954101562 -12 257 -12 c 3
282 102 m 3
 193.73046875 102 147 168.553710938 147 251 c 3
 147 333.450195312 193.73046875 401 282 401 c 3
 370.26953125 401 417 333.450195312 417 251 c 3
 417 168.553710938 370.26953125 102 282 102 c 3
EndSplineSet
EndChar

StartChar: t
Encoding: 116 116 40
Width: 336
VWidth: 0
Flags: HW
LayerCount: 2
Fore
SplineSet
314 393 m 5
 -11 393 l 1
 -11 418 l 1
 167 612 l 1
 167 503 l 1
 314 503 l 1
 314 393 l 5
66 145 m 2
 66 433 l 1
 167 612 l 1
 195 612 l 1
 195 175 l 2
 195 124 210.757871686 108 265 108 c 3
 281 108 299.888888889 111.222183839 316 117 c 1
 316 7 l 1
 300.106520433 -0.800211588542 262 -6 235 -6 c 3
 121.309090909 -6 66 37 66 145 c 2
EndSplineSet
EndChar

StartChar: e
Encoding: 101 101 41
Width: 537
VWidth: 0
Flags: HW
LayerCount: 2
Fore
SplineSet
88 297 m 5
 448 297 l 1
 448 205 l 1
 88 205 l 5
 88 297 l 5
484 25 m 1
 443 0.857421875 376 -14 301 -14 c 3
 121 -14 18 91.6025390625 18 252 c 3
 18 397.436523438 111.728682171 517 278 517 c 3
 428.099548085 517 515 408.4453125 515 273 c 3
 515 249.34765625 514.25 227.666992188 512 205 c 1
 382 205 l 1
 385 226.685546875 387 249.357421875 387 274 c 3
 387 347.439453125 351.318584071 405 275 405 c 3
 192.354330709 405 147 344.3984375 147 253 c 3
 147 164 194 99 315 99 c 3
 365 99 432.225585938 114.063476562 484 143 c 1
 484 25 l 1
EndSplineSet
EndChar

StartChar: s
Encoding: 115 115 42
Width: 417
VWidth: 0
Flags: HW
LayerCount: 2
Fore
SplineSet
381 490 m 1
 352 379 l 1
 312 399.25 274 406 234 406 c 3
 178 406 157 392 157 368 c 3
 157 348.405273438 164.869818584 338.68372253 204.420898438 322.404296875 c 2
 271 295 l 2
 353.087424337 261.212398583 399 226.896294136 399 141 c 3
 399 42 323 -14 203 -14 c 3
 135.212890625 -14 76.80599373 2 40 24 c 1
 40 143 l 1
 92 111.354166667 150 94 205 94 c 3
 256 94 273 108.35 273 135 c 3
 273 154.771949836 258.906005775 167.773512946 221.310546875 183.375976562 c 2
 144.860351562 215.103515625 l 2
 87.0411023207 239.099039526 31 270.952313385 31 363 c 3
 31 459 111 517 241 517 c 3
 296 517 351 505.119553786 381 490 c 1
EndSplineSet
EndChar

StartChar: c
Encoding: 99 99 43
Width: 456
VWidth: 0
Flags: HW
LayerCount: 2
Fore
SplineSet
411 381 m 1
 382.875 390.066666666 353.8125 398 306 398 c 3
 238.829101562 398 147 366.248046875 147 253 c 3
 147 144.887695312 231.637695312 101 312 101 c 3
 355.295778246 101 407.447889122 112.458333333 435 126 c 1
 435 10 l 1
 411.366426356 -0.95276988636 364.099279067 -13 306 -13 c 3
 177.7734375 -13 18 49.380859375 18 249 c 3
 18 465.290039062 196.962890625 516 320 516 c 3
 375.9996109 516 420.999809266 503.5 441 496 c 1
 411 381 l 1
EndSplineSet
EndChar

StartChar: r
Encoding: 114 114 44
Width: 357
VWidth: 0
Flags: HW
LayerCount: 2
Fore
SplineSet
50 0 m 1
 50 503 l 1
 175 503 l 1
 176 360 l 1
 179 360 l 1
 179 260.85546875 179 117.888671875 179 0 c 1
 50 0 l 1
328 361 m 1
 309 367.923076923 291.75 373 271 373 c 3
 215 373 179 334 179 256 c 1
 165 330 l 1
 165 438.679504394 216 510 302 510 c 3
 318.474071703 510 340.181818182 506.531468531 362 494 c 1
 328 361 l 1
EndSplineSet
EndChar

StartChar: v
Encoding: 118 118 45
Width: 493
VWidth: 0
Flags: HW
LayerCount: 2
Fore
SplineSet
330 0 m 1
 210 0 l 5
 351 503 l 1
 483 503 l 1
 330 0 l 1
161 0 m 1
 10 503 l 1
 147 503 l 1
 288 0 l 1
 161 0 l 1
EndSplineSet
EndChar

StartChar: m
Encoding: 109 109 46
Width: 809
VWidth: 0
Flags: HW
LayerCount: 2
Fore
SplineSet
433 321 m 1
 433 435.11328125 494.119140625 510 606 510 c 3
 706.471679688 510 765 443.192382812 765 342 c 2
 765 0 l 1
 636 0 l 1
 636 302 l 2
 636 356.786132812 610.930664062 393 559 393 c 3
 503.958984375 393 472 357.513671875 472 292 c 1
 433 321 l 1
50 0 m 1
 50 503 l 1
 175 503 l 5
 176 360 l 1
 179 360 l 1
 179 0 l 1
 50 0 l 1
162 357 m 1
 162 449.377929688 215.346679688 510 313 510 c 3
 413.471679688 510 472 443.192382812 472 342 c 2
 472 0 l 1
 343 0 l 1
 343 302 l 2
 343 356.786132812 317.930664062 393 266 393 c 3
 210.958984375 393 179 357.513671875 179 292 c 1
 162 357 l 1
EndSplineSet
EndChar

StartChar: f
Encoding: 102 102 47
Width: 342
VWidth: 0
Flags: HW
LayerCount: 2
Fore
SplineSet
20 503 m 1
 335 503 l 1
 335 393 l 1
 0 393 l 1
 20 503 l 1
78 527 m 2
 78 666 190.8515625 697 267 697 c 3
 295.442307692 697 307.263841712 693 318 689 c 1
 338 580 l 1
 326.860648777 582.492675781 308.625 585 291 585 c 3
 245 585 207 571.229508197 207 525 c 2
 207 0 l 1
 78 0 l 1
 78 527 l 2
EndSplineSet
EndChar

StartChar: g
Encoding: 103 103 48
Width: 591
VWidth: 0
Flags: HW
LayerCount: 2
Fore
SplineSet
412 360 m 1
 412 317 l 1
 413 317 l 1
 413 217 l 1
 412 217 l 1
 412 61 l 2
 412 -27.751953125 345.452148438 -57 257 -57 c 3
 203.911132812 -57 129.9140625 -41.98046875 78 -8 c 1
 78 -126 l 1
 118 -151.52734375 202 -166 257 -166 c 3
 445.28515625 -166 541 -79.90625 541 72 c 2
 541 503 l 1
 416 503 l 1
 415 360 l 1
 412 360 l 1
255 20 m 3
 371.124023438 20 444 105.778320312 444 213 c 1
 444 322 l 1
 444 428.727539062 371.900390625 515 255 515 c 3
 106.209960938 515 18 407.254882812 18 267 c 3
 18 127.713867188 106.209960938 20 255 20 c 3
280 134 m 3
 193.0390625 134 147 193.407226562 147 267 c 3
 147 340.655273438 193.0390625 401 280 401 c 3
 366.9609375 401 413 340.655273438 413 267 c 3
 413 193.407226562 366.9609375 134 280 134 c 3
EndSplineSet
EndChar

StartChar: j
Encoding: 106 106 49
Width: 229
VWidth: 0
Flags: HW
LayerCount: 2
Fore
SplineSet
50 566 m 1
 50 688 l 1
 179 688 l 1
 179 566 l 1
 50 566 l 1
50 20 m 2
 50 503 l 1
 179 503 l 1
 179 23 l 2
 179 -108.186440678 115 -157 16 -157 c 3
 -6 -157 -35 -152.6 -48 -146 c 5
 -48 -38 l 1
 -34.8780487805 -42.32 -19 -44 -10 -44 c 3
 30 -44 50 -20.9180327869 50 20 c 2
EndSplineSet
EndChar

StartChar: k
Encoding: 107 107 50
Width: 503
VWidth: 0
Flags: HW
LayerCount: 2
Back
SplineSet
155 322.916992188 m 1
 307 322.916992188 l 1
 523 0 l 1
 374 0 l 1
 155 322.916992188 l 1
111 322.916992188 m 1
 244 322.916992188 l 1
 244 202 l 1
 111 201.916992188 l 1
 111 322.916992188 l 1
159 202 m 1
 365 503 l 1
 509 503 l 1
 304 202 l 1
 159 202 l 1
50 0 m 1
 50 688 l 1
 179 688 l 1
 179 0 l 1
 50 0 l 1
155 322.916992188 m 1
 307 322.916992188 l 1
 523 0 l 1
 374 0 l 1
 155 322.916992188 l 1
111 322.916992188 m 1
 244 322.916992188 l 1
 244 202 l 1
 111 201.916992188 l 1
 111 322.916992188 l 1
159 202 m 1
 365 503 l 1
 509 503 l 1
 304 202 l 1
 159 202 l 1
50 0 m 1
 50 688 l 1
 179 688 l 1
 179 0 l 1
 50 0 l 1
EndSplineSet
Fore
SplineSet
158 260 m 1
 282 303 l 1
 508 0 l 5
 347 0 l 5
 158 260 l 1
153 260 m 1
 350 503 l 1
 503 503 l 1
 282 229 l 1
 153 260 l 1
50 0 m 1
 50 688 l 1
 179 688 l 1
 179 0 l 1
 50 0 l 1
EndSplineSet
EndChar

StartChar: w
Encoding: 119 119 51
Width: 726
VWidth: 0
Flags: HWO
LayerCount: 2
Fore
SplineSet
602 0 m 1
 490 0 l 5
 580 503 l 1
 706 503 l 1
 602 0 l 1
457 0 m 1
 322 503 l 1
 429 503 l 1
 568 0 l 1
 457 0 l 1
267 0 m 1
 163 0 l 1
 302 503 l 1
 404 503 l 1
 267 0 l 1
122 0 m 1
 20 503 l 1
 151 503 l 1
 241 0 l 1
 122 0 l 1
EndSplineSet
EndChar

StartChar: x
Encoding: 120 120 52
Width: 492
VWidth: 0
Flags: HW
LayerCount: 2
Back
SplineSet
139 0 m 5
 -5 0 l 5
 343 503 l 5
 486 503 l 5
 139 0 l 5
349 0 m 5
 10 503 l 5
 159 503 l 5
 497 0 l 5
 349 0 l 5
EndSplineSet
Fore
SplineSet
139 0 m 5
 -5 0 l 5
 164.318359375 259.1875 l 5
 10 503 l 5
 159 503 l 5
 249.659179688 350.084960938 l 5
 343 503 l 5
 486 503 l 5
 330.3515625 262.881835938 l 5
 497 0 l 5
 349 0 l 5
 245.224609375 171.979492188 l 5
 139 0 l 5
EndSplineSet
EndChar

StartChar: y
Encoding: 121 121 53
Width: 488
VWidth: 0
Flags: HW
LayerCount: 2
Back
SplineSet
319.458984375 16.501953125 m 6
 280 -99 232.135144292 -158 125 -158 c 7
 86 -158 51 -149 33 -139 c 5
 33 -26 l 5
 54 -35 83 -43 109 -43 c 7
 158.692307692 -43 180.619242579 -14.9508700102 185 19 c 6
 189 50 l 5
 215 50 l 5
 352 503 l 5
 483 503 l 5
 331 50 l 5
 319.458984375 16.501953125 l 6
169 50 m 5
 8 503 l 5
 149 503 l 5
 294 50 l 5
 203 -49 l 5
 169 50 l 5
EndSplineSet
Fore
SplineSet
319.458984375 16.501953125 m 2
 280 -99 232.135144292 -158 125 -158 c 3
 86 -158 51 -149 33 -139 c 1
 33 -26 l 1
 54 -35 83 -43 109 -43 c 3
 158.692307692 -43 180.619242579 -14.9508700102 185 19 c 2
 189 50 l 1
 215 50 l 1
 352 503 l 1
 483 503 l 1
 319.458984375 16.501953125 l 2
8 503 m 1
 149 503 l 1
 294 50 l 1
 204 -49 l 5
 8 503 l 1
EndSplineSet
EndChar

StartChar: z
Encoding: 122 122 54
Width: 440
VWidth: 0
Flags: HW
LayerCount: 2
Fore
SplineSet
10 24 m 1
 90 112 l 1
 445 112 l 1
 410 0 l 1
 10 0 l 1
 10 24 l 1
424 479 m 1
 343 391 l 1
 10 391 l 1
 45 503 l 1
 424 503 l 1
 424 479 l 1
10 24 m 1
 275 466 l 1
 424 479 l 1
 159 39 l 5
 10 24 l 1
EndSplineSet
EndChar

StartChar: period
Encoding: 46 46 55
Width: 234
VWidth: 0
Flags: HW
LayerCount: 2
Fore
SplineSet
50 0 m 1
 50 133 l 1
 184 133 l 5
 184 0 l 5
 50 0 l 1
EndSplineSet
EndChar

StartChar: uni0080
Encoding: 128 128 56
Width: 632
VWidth: 0
Flags: HW
LayerCount: 2
Back
SplineSet
773 0 m 1
 773 688 l 1
 907 688 l 1
 907 0 l 1
 773 0 l 1
853 404.916992188 m 1
 1328 404.916992188 l 1
 1306 286.916992188 l 1
 853 286.916992188 l 1
 853 404.916992188 l 1
1117 1 m 1
 1117 689 l 1
 1251 689 l 1
 1251 1 l 1
 1117 1 l 1
854 688 m 1
 1173 688 l 1
 1173 566 l 1
 854 566 l 1
 854 688 l 1
EndSplineSet
Fore
SplineSet
459 0 m 1
 297 688 l 1
 432 688 l 1
 595 0 l 1
 459 0 l 1
186 688 m 1
 423 688 l 1
 423 566 l 1
 184 566 l 1
 186 688 l 1
10 0 m 1
 173 688 l 1
 306 688 l 1
 144 0 l 1
 10 0 l 1
124 298.916992188 m 1
 622 298.916992188 l 1
 600 180.916992188 l 1
 124 180.916992188 l 1
 124 298.916992188 l 1
EndSplineSet
EndChar

StartChar: uni0081
Encoding: 129 129 57
Width: 661
VWidth: 0
Flags: HW
LayerCount: 2
Fore
SplineSet
121 413.916992188 m 5
 649 413.916992188 l 5
 626 291 l 5
 121 290.916992188 l 5
 121 413.916992188 l 5
436 0 m 5
 436 688 l 5
 570 688 l 5
 570 0 l 5
 436 0 l 5
60 0 m 5
 60 688 l 5
 194 688 l 5
 194 0 l 5
 60 0 l 5
EndSplineSet
EndChar
